<?xml version="1.0" encoding="UTF-8" standalone="no" ?>
<!DOCTYPE svg PUBLIC "-//W3C//DTD SVG 1.1//EN" "http://www.w3.org/Graphics/SVG/1.1/DTD/svg11.dtd">
<svg xmlns="http://www.w3.org/2000/svg" xmlns:xlink="http://www.w3.org/1999/xlink" version="1.1" width="1080" height="1080" viewBox="0 0 1080 1080" xml:space="preserve">
<desc>Created with Fabric.js 5.2.4</desc>
<defs>
</defs>
<rect x="0" y="0" width="100%" height="100%" fill="transparent"></rect>
<g transform="matrix(1 0 0 1 540 540)" id="ca8aeb14-1968-46c5-911a-c2b2b51dad35"  >
<rect style="stroke: none; stroke-width: 1; stroke-dasharray: none; stroke-linecap: butt; stroke-dashoffset: 0; stroke-linejoin: miter; stroke-miterlimit: 4; fill: rgb(255,255,255); fill-rule: nonzero; opacity: 1; visibility: hidden;" vector-effect="non-scaling-stroke"  x="-540" y="-540" rx="0" ry="0" width="1080" height="1080" />
</g>
<g transform="matrix(1 0 0 1 540 540)" id="d73e2682-b772-40dd-8ba4-b701ddf36e9c"  >
</g>
<g transform="matrix(NaN NaN NaN NaN 0 0)"  >
<g style=""   >
</g>
</g>
<g transform="matrix(NaN NaN NaN NaN 0 0)"  >
<g style=""   >
</g>
</g>
<g transform="matrix(15.39 0 0 15.39 540 559.11)" id="2b2eee6e-9757-4dbf-aedd-db4113958868"  >
<circle style="stroke: rgb(0,0,0); stroke-opacity: 0; stroke-width: 0; stroke-dasharray: none; stroke-linecap: butt; stroke-dashoffset: 0; stroke-linejoin: miter; stroke-miterlimit: 4; fill: rgb(255,255,255); fill-rule: nonzero; opacity: 1;" vector-effect="non-scaling-stroke"  cx="0" cy="0" r="35" />
</g>
<g transform="matrix(NaN NaN NaN NaN 0 0)"  >
<g style=""   >
</g>
</g>
<g transform="matrix(51.3 0 0 51.3 540 486.74)" id="874ca6a7-1698-40d6-baab-5f14bb22a0a5"  >
<path style="stroke: rgb(255,255,255); stroke-width: 0; stroke-dasharray: none; stroke-linecap: butt; stroke-dashoffset: 0; stroke-linejoin: miter; stroke-miterlimit: 4; fill: rgb(0,0,0); fill-rule: nonzero; opacity: 1;" vector-effect="non-scaling-stroke"  transform=" translate(-8, -7)" d="M 0 8 C 0 3.5817220013536524 3.5817220013536524 0 8 0 C 12.418277998646348 0 15.999999999999998 3.5817220013536506 16 7.999999999999998 L 16 13.25 C 16 13.664213562373096 15.664213562373096 14 15.25 14 C 14.835786437626904 14 14.5 13.664213562373096 14.5 13.25 L 14.5 8 C 14.5 4.410149126099842 11.589850873900158 1.5 8 1.5 C 4.410149126099842 1.5 1.5 4.410149126099842 1.5 7.999999999999999 L 1.5 13.25 C 1.5 13.664213562373096 1.1642135623730951 14 0.75 14 C 0.33578643762690485 14 0 13.664213562373096 0 13.25 Z M 3 6.75 C 3 5.784 3.784 5 4.75 5 L 11.25 5 C 12.216 5 13 5.784 13 6.75 L 13 8.25 C 13 9.216498312203889 12.216498312203889 10 11.25 10 L 4.75 10 C 3.7835016877961114 10 3 9.216498312203889 3 8.25 Z M 4.47 6.22 C 4.1775466219424855 6.512817546773957 4.1775466219424855 6.987182453226042 4.47 7.279999999999999 L 5.97 8.78 C 6.262817546773957 9.072453378057514 6.737182453226042 9.072453378057514 7.029999999999999 8.78 L 8 7.81 L 8.97 8.78 C 9.262817546773958 9.072453378057514 9.737182453226044 9.072453378057514 10.030000000000001 8.78 L 11.530000000000001 7.279999999999999 C 11.73110927713473 7.093257714147242 11.813984219790132 6.811481660816991 11.746000586625765 6.545594751968627 C 11.6780169534614 6.279707843120263 11.470062575940986 6.072292855183985 11.204 6.004999999999999 C 10.938423785140943 5.936930316622187 10.656878488725347 6.019399306716673 10.47 6.219999999999999 L 9.5 7.189999999999999 L 8.53 6.219999999999999 C 8.237182453226042 5.927546621942484 7.762817546773956 5.927546621942484 7.469999999999999 6.219999999999999 L 6.499999999999999 7.189999999999999 L 5.529999999999999 6.219999999999999 C 5.237182453226042 5.927546621942484 4.762817546773956 5.927546621942484 4.469999999999999 6.219999999999999 Z M 5.5 12.25 C 5.5 11.835786437626904 5.835786437626905 11.5 6.25 11.5 L 9.75 11.5 C 10.164213562373096 11.5 10.5 11.835786437626904 10.5 12.25 C 10.5 12.664213562373096 10.164213562373096 13 9.75 13 L 6.25 13 C 5.835786437626905 13 5.5 12.664213562373096 5.5 12.25 Z" stroke-linecap="round" />
</g>
</svg>